<svg width="27" height="24" viewBox="0 0 27 24" fill="none" xmlns="http://www.w3.org/2000/svg">
<path d="M4.5 0C5.01562 0 5.48438 0.421875 5.57812 0.9375L5.67188 1.5H25.3594C26.3438 1.5 27.0938 2.48438 26.8125 3.42188L24.2812 12.4219C24.0938 13.0781 23.5312 13.5 22.8281 13.5H7.96875L8.39062 15.75H22.875C23.4844 15.75 24 16.2656 24 16.875C24 17.5312 23.4844 18 22.875 18H7.45312C6.9375 18 6.46875 17.625 6.375 17.1094L3.5625 2.25H1.125C0.46875 2.25 0 1.78125 0 1.125C0 0.515625 0.46875 0 1.125 0H4.5ZM6 21.75C6 20.5312 6.98438 19.5 8.25 19.5C9.46875 19.5 10.5 20.5312 10.5 21.75C10.5 23.0156 9.46875 24 8.25 24C6.98438 24 6 23.0156 6 21.75ZM24 21.75C24 23.0156 22.9688 24 21.75 24C20.4844 24 19.5 23.0156 19.5 21.75C19.5 20.5312 20.4844 19.5 21.75 19.5C22.9688 19.5 24 20.5312 24 21.75Z" fill="#E900FF"/>
</svg>
