<svg width="21" height="22" viewBox="0 0 21 22" fill="none" xmlns="http://www.w3.org/2000/svg">
<path d="M3.75 5.75C3.75 4.95312 4.40625 4.25 5.25 4.25C6.04688 4.25 6.75 4.95312 6.75 5.75C6.75 6.59375 6.04688 7.25 5.25 7.25C4.40625 7.25 3.75 6.59375 3.75 5.75ZM9.23438 0.5C10.0312 0.5 10.7812 0.828125 11.3438 1.39062L19.5938 9.64062C20.7656 10.8125 20.7656 12.7344 19.5938 13.9062L13.3594 20.1406C12.1875 21.3125 10.2656 21.3125 9.09375 20.1406L0.84375 11.8906C0.28125 11.3281 0 10.5781 0 9.78125V2.75C0 1.53125 0.984375 0.5 2.25 0.5H9.23438ZM2.4375 10.2969L10.6875 18.5469C10.9688 18.875 11.4844 18.875 11.7656 18.5469L18 12.3125C18.3281 12.0312 18.3281 11.5156 18 11.2344L9.75 2.98438C9.60938 2.84375 9.42188 2.75 9.23438 2.75H2.25V9.78125C2.25 9.96875 2.29688 10.1562 2.4375 10.2969Z" fill="#E900FF"/>
</svg>
