<svg width="30" height="24" viewBox="0 0 30 24" fill="none" xmlns="http://www.w3.org/2000/svg">
<path d="M30 7.64062C30 7.96875 29.8594 8.29688 29.625 8.57812L27.3281 11.4844C27 11.8125 26.5781 12 26.1562 12C25.8281 12 25.4531 11.9062 25.2188 11.7188L22.5 9.5625V21.75C22.5 23.0156 21.4688 24 20.25 24H9.75C8.48438 24 7.5 23.0156 7.5 21.75V9.5625L4.73438 11.7188C4.5 11.9062 4.125 12 3.79688 12C3.375 12 2.95312 11.8125 2.625 11.4375L0.328125 8.57812C0.09375 8.29688 0 7.96875 0 7.64062C0 7.21875 0.1875 6.79688 0.5625 6.51562L6.89062 1.5C7.45312 1.03125 8.20312 0.75 8.95312 0.75H10.5469C10.9219 2.90625 12.75 4.5 15 4.5C17.2031 4.5 19.0312 2.90625 19.4062 0.75H20.9531C21.75 0.75 22.5 1.03125 23.0625 1.5L29.3906 6.51562C29.7656 6.79688 30 7.21875 30 7.64062Z" fill="#E900FF"/>
</svg>
