<svg width="25" height="25" viewBox="0 0 25 25" fill="none" xmlns="http://www.w3.org/2000/svg">
<path d="M2.6875 16.9219C2.875 16.2656 3.25 15.6562 3.71875 15.1875L17.9688 0.9375C19.1406 -0.234375 21.0625 -0.234375 22.2344 0.9375L24.0625 2.76562C24.2031 2.90625 24.3438 3.09375 24.4375 3.23438C25.2344 4.40625 25.0938 6 24.0625 7.03125L9.8125 21.2812C9.76563 21.3281 9.67188 21.375 9.625 21.4688C9.15625 21.8438 8.64063 22.125 8.07813 22.3125L2.40625 23.9531C2.03125 24.0938 1.60938 24 1.32813 23.6719C1 23.3906 0.906252 22.9688 1 22.5938L2.6875 16.9219ZM3.76563 21.2344L7.42188 20.1562C7.51563 20.1094 7.65625 20.0625 7.75 20.0156L6.0625 19.6875C5.6875 19.5938 5.35938 19.3125 5.3125 18.9375L4.98438 17.25C4.9375 17.3438 4.89063 17.4844 4.84375 17.5781L3.76563 21.2344ZM9.4375 18.4688L18.9531 8.95312L16 6.04688L6.53125 15.5625L7 17.9531L9.4375 18.4688Z" fill="#5800FF"/>
</svg>
